<?xml version="1.0" encoding="UTF-8" standalone="no"?>
<!DOCTYPE svg PUBLIC "-//W3C//DTD SVG 1.1//EN" "http://www.w3.org/Graphics/SVG/1.1/DTD/svg11.dtd">
<svg width="100%" height="100%" viewBox="0 0 580 580" version="1.1" xmlns="http://www.w3.org/2000/svg" xmlns:xlink="http://www.w3.org/1999/xlink" xml:space="preserve" xmlns:serif="http://www.serif.com/" style="fill-rule:evenodd;clip-rule:evenodd;stroke-linejoin:round;stroke-miterlimit:1.41421;">
    <g>
        <path d="M286.705,140.354L286.6,140.354C286.6,140.354 271.74,123.476 258.773,135.363C245.807,147.249 256.574,173.336 286.026,185.221L287.078,185.584C316.53,173.698 327.509,147.248 314.542,135.362C301.575,123.477 286.705,140.354 286.705,140.354Z" style="fill:white;fill-rule:nonzero;stroke:white;stroke-width:1px;"/>
        <path d="M486.657,275.941C423.803,258.642 391.501,312.269 389.769,329.577C388.039,346.876 384.003,355.53 377.08,355.53C370.157,355.53 364.975,331.882 383.42,305.355C401.866,278.829 472.811,225.776 419.748,176.75C365.538,131.193 314.217,199.24 324.592,227.498C328.197,239.9 337.712,245.38 337.712,245.38C337.712,245.38 325.452,261.234 328.627,265.423C331.802,269.602 354.006,247.398 354.866,245.38C355.727,243.362 371.017,238.743 367.843,212.8C364.668,186.848 416.861,192.901 394.369,233.274C371.877,273.647 297.482,294.981 303.832,367.646C303.832,367.646 309.598,469.142 473.375,444.347C473.375,444.347 591.596,425.318 578.333,299.016C540.867,309.391 533.37,290.936 486.657,275.941Z" style="fill:white;fill-rule:nonzero;stroke:white;stroke-width:1px;"/>
        <path d="M275.555,367.636C281.895,294.971 207.509,273.637 185.017,233.264C162.525,192.891 214.718,186.838 211.543,212.791C208.368,238.743 223.649,243.353 224.52,245.37C225.39,247.388 247.584,269.592 250.759,265.413C253.934,261.234 241.675,245.37 241.675,245.37C241.675,245.37 251.19,239.891 254.795,227.488C265.18,199.231 213.849,131.184 159.639,176.74C106.586,225.758 177.521,278.809 195.967,305.345C214.423,331.871 209.23,355.52 202.307,355.52C195.384,355.52 191.349,346.866 189.618,329.567C187.887,312.269 155.595,258.632 92.731,275.931C46.018,290.925 38.521,309.38 1.036,298.995C-12.208,425.307 106.013,444.336 106.013,444.336C269.789,469.133 275.555,367.636 275.555,367.636Z" style="fill:white;fill-rule:nonzero;stroke:white;stroke-width:1px;"/>
    </g>
</svg>
