<?xml version="1.0" encoding="UTF-8" standalone="no"?>
<!DOCTYPE svg PUBLIC "-//W3C//DTD SVG 1.1//EN" "http://www.w3.org/Graphics/SVG/1.1/DTD/svg11.dtd">
<svg width="100%" height="100%" viewBox="0 0 318 318" version="1.1" xmlns="http://www.w3.org/2000/svg" xmlns:xlink="http://www.w3.org/1999/xlink" xml:space="preserve" xmlns:serif="http://www.serif.com/" style="fill-rule:evenodd;clip-rule:evenodd;">
    <g id="Calque_1">
        <g id="g3126">
            <g id="g3128">
                <path id="path3130" d="M181.845,96.998L190.399,77.336C190.399,77.336 201.179,56.17 192.323,41.686C189.376,36.87 185.79,34.679 180.302,30.057C170.426,21.734 163.889,18.932 158.683,5.703C153.195,18.82 146.604,21.482 136.553,29.595C130.972,34.102 127.338,36.216 124.289,40.97C115.129,55.265 125.464,76.653 125.464,76.653L133.605,96.49" style="fill:rgb(73,20,60);fill-rule:nonzero;stroke:white;stroke-width:4.29px;"/>
                <path id="path3132" d="M218.702,131.433L238.655,123.578C238.655,123.578 261.246,116.235 265.225,99.732C266.545,94.24 265.559,90.155 264.947,83.006C263.849,70.136 261.209,63.534 266.882,50.497C253.726,55.893 247.183,53.115 234.336,51.744C227.204,50.983 223.141,49.909 217.623,51.116C201.04,54.746 193.225,77.177 193.225,77.177L184.949,96.959" style="fill:rgb(73,20,60);fill-rule:nonzero;stroke:white;stroke-width:4.29px;"/>
                <path id="path3134" d="M220.418,181.843L240.079,190.398C240.079,190.398 261.245,201.179 275.729,192.324C280.544,189.373 282.735,185.787 287.357,180.301C295.682,170.425 298.483,163.887 311.712,158.68C298.595,153.194 295.931,146.603 287.818,136.551C283.314,130.97 281.197,127.337 276.442,124.29C262.147,115.129 240.763,125.465 240.763,125.465L220.921,133.602" style="fill:rgb(73,20,60);fill-rule:nonzero;stroke:white;stroke-width:4.29px;"/>
                <path id="path3136" d="M185.985,218.702L193.839,238.653C193.839,238.653 201.18,261.245 217.685,265.222C223.178,266.543 227.261,265.555 234.411,264.945C247.279,263.847 253.884,261.205 266.921,266.878C261.523,253.722 264.305,247.181 265.673,234.334C266.435,227.202 267.507,223.138 266.299,217.62C262.669,201.036 240.238,193.221 240.238,193.221L220.455,184.949" style="fill:rgb(73,20,60);fill-rule:nonzero;stroke:white;stroke-width:4.29px;"/>
                <path id="path3138" d="M135.572,220.417L127.02,240.079C127.02,240.079 116.238,261.245 125.091,275.727C128.041,280.545 131.63,282.734 137.115,287.359C146.987,295.681 153.528,298.481 158.734,311.712C164.222,298.594 170.813,295.933 180.864,287.818C186.445,283.312 190.079,281.197 193.128,276.441C202.288,262.149 191.953,240.76 191.953,240.76L183.814,220.924" style="fill:rgb(73,20,60);fill-rule:nonzero;stroke:white;stroke-width:4.29px;"/>
                <path id="path3140" d="M98.715,185.982L78.762,193.836C78.762,193.836 56.171,201.18 52.192,217.682C50.872,223.175 51.859,227.26 52.47,234.409C53.568,247.278 56.208,253.881 50.535,266.917C63.691,261.522 70.232,264.3 83.081,265.67C90.213,266.431 94.276,267.504 99.797,266.296C116.381,262.666 124.193,240.234 124.193,240.234L132.466,220.454" style="fill:rgb(73,20,60);fill-rule:nonzero;stroke:white;stroke-width:4.29px;"/>
                <path id="path3142" d="M96.999,135.572L77.338,127.017C77.338,127.017 56.172,116.234 41.688,125.091C36.873,128.042 34.683,131.627 30.06,137.115C21.735,146.989 18.934,153.527 5.705,158.735C18.822,164.219 21.482,170.811 29.599,180.864C34.103,186.445 36.22,190.079 40.975,193.127C55.27,202.287 76.657,191.952 76.657,191.952L96.496,183.813" style="fill:rgb(73,20,60);fill-rule:nonzero;stroke:white;stroke-width:4.29px;"/>
                <path id="path3144" d="M131.432,98.713L123.579,78.761C123.579,78.761 116.233,56.168 99.732,52.192C94.239,50.871 90.153,51.859 83.003,52.468C70.139,53.565 63.534,56.209 50.497,50.535C55.892,63.689 53.113,70.232 51.745,83.08C50.983,90.211 49.911,94.276 51.114,99.793C54.747,116.378 77.179,124.194 77.179,124.194L96.958,132.465" style="fill:rgb(73,20,60);fill-rule:nonzero;stroke:white;stroke-width:4.29px;"/>
            </g>
            <g id="g3146">
                <path id="path3148" d="M157.374,116.743L157.263,90.832C157.263,90.832 158.708,72.421 148.038,64.653C144.487,62.07 141.261,61.565 135.942,59.876C126.373,56.837 120.843,56.77 113.168,48.816C113.128,59.87 109.186,63.744 104.382,72.561C101.713,77.458 99.734,80.059 98.958,84.38C96.632,97.372 110.418,109.66 110.418,109.66L129.287,128.755" style="fill:rgb(73,20,60);fill-rule:nonzero;stroke:white;stroke-width:3px;"/>
                <path id="path3150" d="M193.686,121.268L205.679,109.69C205.679,109.69 219.722,97.694 217.67,84.657C216.983,80.32 215.06,77.679 212.494,72.727C207.876,63.809 204.014,59.852 204.211,48.801C196.367,56.591 190.839,56.542 181.206,59.379C175.855,60.956 172.617,61.393 169.015,63.9C158.183,71.442 159.244,89.879 159.244,89.879L159.086,116.725" style="fill:rgb(73,20,60);fill-rule:nonzero;stroke:white;stroke-width:3px;"/>
                <path id="path3152" d="M209.917,156.965L226.584,157.26C226.584,157.26 244.994,158.707 252.763,148.036C255.344,144.484 255.851,141.257 257.538,135.94C260.58,126.37 260.645,120.84 268.6,113.165C257.546,113.127 253.672,109.186 244.854,104.378C239.958,101.711 237.357,99.73 233.035,98.956C220.042,96.628 207.758,110.415 207.758,110.415L195.929,122.162" style="fill:rgb(73,20,60);fill-rule:nonzero;stroke:white;stroke-width:3px;"/>
                <path id="path3154" d="M196.15,193.685L207.727,205.679C207.727,205.679 219.72,219.722 232.76,217.668C237.098,216.982 239.737,215.058 244.69,212.493C253.606,207.876 257.564,204.013 268.616,204.209C260.825,196.366 260.878,190.839 258.037,181.204C256.462,175.854 256.023,172.616 253.515,169.014C245.974,158.182 227.537,159.242 227.537,159.242L210.866,159.185" style="fill:rgb(73,20,60);fill-rule:nonzero;stroke:white;stroke-width:3px;"/>
                <path id="path3156" d="M160.45,209.915L160.158,226.582C160.158,226.582 158.71,244.993 169.38,252.761C172.931,255.345 176.16,255.849 181.475,257.538C191.044,260.579 196.576,260.643 204.25,268.599C204.289,257.543 208.232,253.671 213.036,244.853C215.704,239.956 217.684,237.355 218.459,233.033C220.786,220.043 206.999,207.754 206.999,207.754L195.253,195.928" style="fill:rgb(73,20,60);fill-rule:nonzero;stroke:white;stroke-width:3px;"/>
                <path id="path3158" d="M123.732,196.147L111.737,207.725C111.737,207.725 97.696,219.721 99.747,232.757C100.434,237.096 102.358,239.736 104.923,244.689C109.542,253.606 113.403,257.563 113.207,268.614C121.05,260.825 126.576,260.876 136.211,258.036C141.561,256.46 144.799,256.022 148.404,253.513C159.237,245.972 158.173,227.535 158.173,227.535L158.232,210.866" style="fill:rgb(73,20,60);fill-rule:nonzero;stroke:white;stroke-width:3px;"/>
                <path id="path3160" d="M107.501,160.45L90.834,160.155C90.834,160.155 72.422,158.707 64.653,169.378C62.073,172.931 61.566,176.157 59.879,181.475C56.837,191.044 56.77,196.574 48.817,204.249C59.871,204.286 63.743,208.228 72.563,213.035C77.459,215.703 80.06,217.683 84.381,218.458C97.374,220.784 109.661,206.999 109.661,206.999L121.488,195.251" style="fill:rgb(73,20,60);fill-rule:nonzero;stroke:white;stroke-width:3px;"/>
                <path id="path3162" d="M128.07,130.002L109.69,111.735C109.69,111.735 97.693,97.693 84.658,99.746C80.319,100.432 77.679,102.357 72.724,104.922C63.811,109.537 59.853,113.401 48.8,113.205C56.588,121.048 56.54,126.574 59.38,136.209C60.954,141.558 61.394,144.796 63.901,148.402C71.443,159.235 89.88,158.173 89.88,158.173L106.549,158.229" style="fill:rgb(73,20,60);fill-rule:nonzero;stroke:white;stroke-width:3px;"/>
            </g>
            <g id="g3164">
                <path id="path3166" d="M172.823,121.062L178.042,109.068C178.042,109.068 184.618,96.156 179.216,87.32C177.417,84.382 175.23,83.046 171.882,80.225C165.857,75.148 161.868,73.439 158.693,65.369C155.345,73.371 151.324,74.995 145.193,79.944C141.789,82.693 139.572,83.983 137.713,86.883C132.125,95.603 138.43,108.651 138.43,108.651L143.395,120.753" style="fill:rgb(73,20,60);fill-rule:nonzero;stroke:white;stroke-width:3px;"/>
                <path id="path3168" d="M195.307,142.069L207.479,137.277C207.479,137.277 221.26,132.798 223.688,122.73C224.493,119.379 223.891,116.887 223.518,112.527C222.848,104.675 221.237,100.648 224.698,92.695C216.673,95.987 212.68,94.292 204.844,93.456C200.492,92.992 198.014,92.337 194.649,93.073C184.532,95.288 179.764,108.971 179.764,108.971L174.715,121.038" style="fill:rgb(73,20,60);fill-rule:nonzero;stroke:white;stroke-width:3px;"/>
                <path id="path3170" d="M196.354,172.821L208.348,178.04C208.348,178.04 221.26,184.616 230.096,179.214C233.034,177.415 234.369,175.228 237.19,171.88C242.268,165.855 243.977,161.866 252.047,158.691C244.045,155.344 242.42,151.323 237.471,145.191C234.723,141.787 233.432,139.57 230.532,137.712C221.811,132.123 208.766,138.429 208.766,138.429L196.662,143.393" style="fill:rgb(73,20,60);fill-rule:nonzero;stroke:white;stroke-width:3px;"/>
                <path id="path3172" d="M175.348,195.306L180.139,207.478C180.139,207.478 184.618,221.259 194.686,223.687C198.038,224.492 200.528,223.89 204.889,223.517C212.739,222.847 216.768,221.236 224.721,224.697C221.428,216.672 223.125,212.679 223.959,204.843C224.424,200.491 225.078,198.013 224.342,194.648C222.127,184.531 208.444,179.763 208.444,179.763L196.376,174.716" style="fill:rgb(73,20,60);fill-rule:nonzero;stroke:white;stroke-width:3px;"/>
                <path id="path3174" d="M144.594,196.353L139.377,208.347C139.377,208.347 132.799,221.259 138.201,230.095C140,233.034 142.189,234.368 145.535,237.191C151.558,242.267 155.549,243.976 158.724,252.046C162.072,244.044 166.093,242.421 172.224,237.47C175.628,234.722 177.845,233.431 179.704,230.531C185.292,221.812 178.987,208.763 178.987,208.763L174.022,196.663" style="fill:rgb(73,20,60);fill-rule:nonzero;stroke:white;stroke-width:3px;"/>
                <path id="path3176" d="M122.11,175.347L109.938,180.138C109.938,180.138 96.157,184.618 93.729,194.685C92.924,198.037 93.526,200.529 93.899,204.888C94.569,212.74 96.18,216.767 92.719,224.72C100.744,221.429 104.735,223.124 112.573,223.958C116.925,224.423 119.403,225.077 122.77,224.341C132.887,222.126 137.653,208.443 137.653,208.443L142.7,196.377" style="fill:rgb(73,20,60);fill-rule:nonzero;stroke:white;stroke-width:3px;"/>
                <path id="path3178" d="M121.063,144.594L109.069,139.375C109.069,139.375 96.157,132.797 87.321,138.2C84.383,140 83.048,142.187 80.227,145.535C75.149,151.558 73.44,155.547 65.37,158.723C73.372,162.071 74.995,166.09 79.946,172.223C82.694,175.627 83.985,177.844 86.885,179.703C95.606,185.291 108.653,178.986 108.653,178.986L120.755,174.021" style="fill:rgb(73,20,60);fill-rule:nonzero;stroke:white;stroke-width:3px;"/>
                <path id="path3180" d="M142.069,122.109L137.278,109.937C137.278,109.937 132.798,96.155 122.731,93.729C119.379,92.923 116.887,93.526 112.526,93.898C104.678,94.567 100.649,96.179 92.696,92.718C95.987,100.742 94.292,104.734 93.458,112.572C92.993,116.923 92.339,119.402 93.073,122.768C95.288,132.885 108.973,137.653 108.973,137.653L121.039,142.699" style="fill:rgb(73,20,60);fill-rule:nonzero;stroke:white;stroke-width:3px;"/>
            </g>
            <g id="g3182">
                <path id="path3184" d="M157.374,116.743L157.574,105.448C157.574,105.448 158.708,91.002 150.336,84.906C147.55,82.88 145.018,82.483 140.845,81.158C133.336,78.773 128.997,78.72 122.975,72.48C122.944,81.154 119.85,84.193 116.08,91.112C113.986,94.955 112.433,96.995 111.824,100.386C109.999,110.58 120.816,120.222 120.816,120.222L129.287,128.756" style="fill:rgb(73,20,60);fill-rule:nonzero;stroke:white;stroke-width:3px;"/>
                <path id="path3186" d="M186.154,129.33L195.565,120.245C195.565,120.245 206.584,110.832 204.974,100.602C204.435,97.199 202.925,95.126 200.912,91.241C197.288,84.243 194.258,81.139 194.412,72.467C188.258,78.579 183.92,78.541 176.361,80.767C172.163,82.004 169.622,82.347 166.795,84.315C158.296,90.233 159.085,116.724 159.085,116.724" style="fill:rgb(73,20,60);fill-rule:nonzero;stroke:white;stroke-width:3px;"/>
                <path id="path3188" d="M198.889,157.34L211.967,157.571C211.967,157.571 226.413,158.706 232.509,150.334C234.534,147.547 234.932,145.015 236.256,140.843C238.643,133.334 238.694,128.995 244.936,122.972C236.262,122.942 233.222,119.849 226.303,116.077C222.461,113.984 220.42,112.43 217.029,111.823C206.834,109.997 197.195,120.815 197.195,120.815L187.913,130.033" style="fill:rgb(73,20,60);fill-rule:nonzero;stroke:white;stroke-width:3px;"/>
                <path id="path3190" d="M188.087,186.152L197.171,195.564C197.171,195.564 206.582,206.583 216.814,204.971C220.218,204.433 222.289,202.923 226.175,200.91C233.171,197.287 236.277,194.256 244.948,194.41C238.835,188.256 238.876,183.918 236.647,176.359C235.411,172.162 235.067,169.621 233.098,166.793C227.181,158.294 212.714,159.125 212.714,159.125L199.633,159.081" style="fill:rgb(73,20,60);fill-rule:nonzero;stroke:white;stroke-width:3px;"/>
                <path id="path3192" d="M160.075,198.888L159.846,211.966C159.846,211.966 158.71,226.413 167.082,232.508C169.868,234.535 172.402,234.931 176.572,236.257C184.081,238.643 188.421,238.694 194.443,244.935C194.473,236.261 197.568,233.222 201.338,226.302C203.431,222.46 204.985,220.419 205.593,217.028C207.419,206.835 196.601,197.193 196.601,197.193L187.384,187.914" style="fill:rgb(73,20,60);fill-rule:nonzero;stroke:white;stroke-width:3px;"/>
                <path id="path3194" d="M131.263,188.085L121.851,197.171C121.851,197.171 110.833,206.583 112.443,216.812C112.982,220.216 114.492,222.289 116.505,226.175C120.129,233.171 123.159,236.277 123.005,244.947C129.159,238.835 133.495,238.875 141.056,236.647C145.253,235.41 147.794,235.067 150.623,233.098C159.123,227.18 158.288,212.713 158.288,212.713L158.334,199.633" style="fill:rgb(73,20,60);fill-rule:nonzero;stroke:white;stroke-width:3px;"/>
                <path id="path3196" d="M118.528,160.075L105.45,159.843C105.45,159.843 91.003,158.707 84.907,167.081C82.883,169.868 82.485,172.399 81.161,176.571C78.774,184.08 78.722,188.419 72.481,194.442C81.155,194.471 84.193,197.565 91.114,201.337C94.956,203.43 96.997,204.983 100.387,205.592C110.582,207.417 120.224,196.6 120.224,196.6L129.504,187.382" style="fill:rgb(73,20,60);fill-rule:nonzero;stroke:white;stroke-width:3px;"/>
                <path id="path3198" d="M128.07,130.002C128.07,130.002 110.832,110.832 100.603,112.443C97.199,112.981 95.126,114.491 91.24,116.504C84.246,120.126 81.14,123.157 72.468,123.003C78.579,129.157 78.541,133.493 80.77,141.054C82.005,145.251 82.35,147.792 84.317,150.621C90.235,159.121 104.703,158.288 104.703,158.288L117.782,158.332" style="fill:rgb(73,20,60);fill-rule:nonzero;stroke:white;stroke-width:3px;"/>
            </g>
        </g>
        <path id="path3213" d="M223.367,159.616C223.367,194.962 194.714,223.616 159.367,223.616C124.021,223.616 95.367,194.962 95.367,159.616C95.367,124.27 124.021,95.616 159.367,95.616C194.713,95.616 223.367,124.271 223.367,159.616Z" style="fill:rgb(73,20,60);fill-rule:nonzero;stroke:white;stroke-width:3px;"/>
    </g>
</svg>
